G04 #@! TF.GenerationSoftware,KiCad,Pcbnew,(5.1.4-0)*
G04 #@! TF.CreationDate,2021-01-28T22:10:56-05:00*
G04 #@! TF.ProjectId,coral_breakout,636f7261-6c5f-4627-9265-616b6f75742e,rev?*
G04 #@! TF.SameCoordinates,Original*
G04 #@! TF.FileFunction,Soldermask,Top*
G04 #@! TF.FilePolarity,Negative*
%FSLAX46Y46*%
G04 Gerber Fmt 4.6, Leading zero omitted, Abs format (unit mm)*
G04 Created by KiCad (PCBNEW (5.1.4-0)) date 2021-01-28 22:10:56*
%MOMM*%
%LPD*%
G04 APERTURE LIST*
%ADD10C,0.100000*%
G04 APERTURE END LIST*
D10*
G36*
X147430443Y-105785519D02*
G01*
X147496627Y-105792037D01*
X147666466Y-105843557D01*
X147822991Y-105927222D01*
X147858729Y-105956552D01*
X147960186Y-106039814D01*
X148043448Y-106141271D01*
X148072778Y-106177009D01*
X148156443Y-106333534D01*
X148207963Y-106503373D01*
X148225359Y-106680000D01*
X148207963Y-106856627D01*
X148156443Y-107026466D01*
X148072778Y-107182991D01*
X148043448Y-107218729D01*
X147960186Y-107320186D01*
X147858729Y-107403448D01*
X147822991Y-107432778D01*
X147666466Y-107516443D01*
X147496627Y-107567963D01*
X147430443Y-107574481D01*
X147364260Y-107581000D01*
X147275740Y-107581000D01*
X147209557Y-107574481D01*
X147143373Y-107567963D01*
X146973534Y-107516443D01*
X146817009Y-107432778D01*
X146781271Y-107403448D01*
X146679814Y-107320186D01*
X146596552Y-107218729D01*
X146567222Y-107182991D01*
X146483557Y-107026466D01*
X146432037Y-106856627D01*
X146414641Y-106680000D01*
X146432037Y-106503373D01*
X146483557Y-106333534D01*
X146567222Y-106177009D01*
X146596552Y-106141271D01*
X146679814Y-106039814D01*
X146781271Y-105956552D01*
X146817009Y-105927222D01*
X146973534Y-105843557D01*
X147143373Y-105792037D01*
X147209557Y-105785519D01*
X147275740Y-105779000D01*
X147364260Y-105779000D01*
X147430443Y-105785519D01*
X147430443Y-105785519D01*
G37*
G36*
X132190443Y-105785519D02*
G01*
X132256627Y-105792037D01*
X132426466Y-105843557D01*
X132582991Y-105927222D01*
X132618729Y-105956552D01*
X132720186Y-106039814D01*
X132803448Y-106141271D01*
X132832778Y-106177009D01*
X132916443Y-106333534D01*
X132967963Y-106503373D01*
X132985359Y-106680000D01*
X132967963Y-106856627D01*
X132916443Y-107026466D01*
X132832778Y-107182991D01*
X132803448Y-107218729D01*
X132720186Y-107320186D01*
X132618729Y-107403448D01*
X132582991Y-107432778D01*
X132426466Y-107516443D01*
X132256627Y-107567963D01*
X132190443Y-107574481D01*
X132124260Y-107581000D01*
X132035740Y-107581000D01*
X131969557Y-107574481D01*
X131903373Y-107567963D01*
X131733534Y-107516443D01*
X131577009Y-107432778D01*
X131541271Y-107403448D01*
X131439814Y-107320186D01*
X131356552Y-107218729D01*
X131327222Y-107182991D01*
X131243557Y-107026466D01*
X131192037Y-106856627D01*
X131174641Y-106680000D01*
X131192037Y-106503373D01*
X131243557Y-106333534D01*
X131327222Y-106177009D01*
X131356552Y-106141271D01*
X131439814Y-106039814D01*
X131541271Y-105956552D01*
X131577009Y-105927222D01*
X131733534Y-105843557D01*
X131903373Y-105792037D01*
X131969557Y-105785519D01*
X132035740Y-105779000D01*
X132124260Y-105779000D01*
X132190443Y-105785519D01*
X132190443Y-105785519D01*
G37*
G36*
X147430443Y-103245519D02*
G01*
X147496627Y-103252037D01*
X147666466Y-103303557D01*
X147822991Y-103387222D01*
X147858729Y-103416552D01*
X147960186Y-103499814D01*
X148043448Y-103601271D01*
X148072778Y-103637009D01*
X148156443Y-103793534D01*
X148207963Y-103963373D01*
X148225359Y-104140000D01*
X148207963Y-104316627D01*
X148156443Y-104486466D01*
X148072778Y-104642991D01*
X148043448Y-104678729D01*
X147960186Y-104780186D01*
X147858729Y-104863448D01*
X147822991Y-104892778D01*
X147666466Y-104976443D01*
X147496627Y-105027963D01*
X147430442Y-105034482D01*
X147364260Y-105041000D01*
X147275740Y-105041000D01*
X147209557Y-105034481D01*
X147143373Y-105027963D01*
X146973534Y-104976443D01*
X146817009Y-104892778D01*
X146781271Y-104863448D01*
X146679814Y-104780186D01*
X146596552Y-104678729D01*
X146567222Y-104642991D01*
X146483557Y-104486466D01*
X146432037Y-104316627D01*
X146414641Y-104140000D01*
X146432037Y-103963373D01*
X146483557Y-103793534D01*
X146567222Y-103637009D01*
X146596552Y-103601271D01*
X146679814Y-103499814D01*
X146781271Y-103416552D01*
X146817009Y-103387222D01*
X146973534Y-103303557D01*
X147143373Y-103252037D01*
X147209558Y-103245518D01*
X147275740Y-103239000D01*
X147364260Y-103239000D01*
X147430443Y-103245519D01*
X147430443Y-103245519D01*
G37*
G36*
X132190443Y-103245519D02*
G01*
X132256627Y-103252037D01*
X132426466Y-103303557D01*
X132582991Y-103387222D01*
X132618729Y-103416552D01*
X132720186Y-103499814D01*
X132803448Y-103601271D01*
X132832778Y-103637009D01*
X132916443Y-103793534D01*
X132967963Y-103963373D01*
X132985359Y-104140000D01*
X132967963Y-104316627D01*
X132916443Y-104486466D01*
X132832778Y-104642991D01*
X132803448Y-104678729D01*
X132720186Y-104780186D01*
X132618729Y-104863448D01*
X132582991Y-104892778D01*
X132426466Y-104976443D01*
X132256627Y-105027963D01*
X132190442Y-105034482D01*
X132124260Y-105041000D01*
X132035740Y-105041000D01*
X131969557Y-105034481D01*
X131903373Y-105027963D01*
X131733534Y-104976443D01*
X131577009Y-104892778D01*
X131541271Y-104863448D01*
X131439814Y-104780186D01*
X131356552Y-104678729D01*
X131327222Y-104642991D01*
X131243557Y-104486466D01*
X131192037Y-104316627D01*
X131174641Y-104140000D01*
X131192037Y-103963373D01*
X131243557Y-103793534D01*
X131327222Y-103637009D01*
X131356552Y-103601271D01*
X131439814Y-103499814D01*
X131541271Y-103416552D01*
X131577009Y-103387222D01*
X131733534Y-103303557D01*
X131903373Y-103252037D01*
X131969558Y-103245518D01*
X132035740Y-103239000D01*
X132124260Y-103239000D01*
X132190443Y-103245519D01*
X132190443Y-103245519D01*
G37*
G36*
X144505000Y-104075800D02*
G01*
X135103000Y-104075800D01*
X135103000Y-103373800D01*
X144505000Y-103373800D01*
X144505000Y-104075800D01*
X144505000Y-104075800D01*
G37*
G36*
X144505000Y-103025800D02*
G01*
X143803000Y-103025800D01*
X143803000Y-90623800D01*
X144505000Y-90623800D01*
X144505000Y-103025800D01*
X144505000Y-103025800D01*
G37*
G36*
X135805000Y-103025800D02*
G01*
X135103000Y-103025800D01*
X135103000Y-90623800D01*
X135805000Y-90623800D01*
X135805000Y-103025800D01*
X135805000Y-103025800D01*
G37*
G36*
X139455000Y-102875800D02*
G01*
X138553000Y-102875800D01*
X138553000Y-101973800D01*
X139455000Y-101973800D01*
X139455000Y-102875800D01*
X139455000Y-102875800D01*
G37*
G36*
X141055000Y-102875800D02*
G01*
X140153000Y-102875800D01*
X140153000Y-101973800D01*
X141055000Y-101973800D01*
X141055000Y-102875800D01*
X141055000Y-102875800D01*
G37*
G36*
X137855000Y-102875800D02*
G01*
X136953000Y-102875800D01*
X136953000Y-101973800D01*
X137855000Y-101973800D01*
X137855000Y-102875800D01*
X137855000Y-102875800D01*
G37*
G36*
X142655000Y-102875800D02*
G01*
X141753000Y-102875800D01*
X141753000Y-101973800D01*
X142655000Y-101973800D01*
X142655000Y-102875800D01*
X142655000Y-102875800D01*
G37*
G36*
X132190443Y-100705519D02*
G01*
X132256627Y-100712037D01*
X132426466Y-100763557D01*
X132582991Y-100847222D01*
X132618729Y-100876552D01*
X132720186Y-100959814D01*
X132803448Y-101061271D01*
X132832778Y-101097009D01*
X132916443Y-101253534D01*
X132967963Y-101423373D01*
X132985359Y-101600000D01*
X132967963Y-101776627D01*
X132916443Y-101946466D01*
X132832778Y-102102991D01*
X132815700Y-102123800D01*
X132720186Y-102240186D01*
X132618729Y-102323448D01*
X132582991Y-102352778D01*
X132426466Y-102436443D01*
X132256627Y-102487963D01*
X132190442Y-102494482D01*
X132124260Y-102501000D01*
X132035740Y-102501000D01*
X131969558Y-102494482D01*
X131903373Y-102487963D01*
X131733534Y-102436443D01*
X131577009Y-102352778D01*
X131541271Y-102323448D01*
X131439814Y-102240186D01*
X131344300Y-102123800D01*
X131327222Y-102102991D01*
X131243557Y-101946466D01*
X131192037Y-101776627D01*
X131174641Y-101600000D01*
X131192037Y-101423373D01*
X131243557Y-101253534D01*
X131327222Y-101097009D01*
X131356552Y-101061271D01*
X131439814Y-100959814D01*
X131541271Y-100876552D01*
X131577009Y-100847222D01*
X131733534Y-100763557D01*
X131903373Y-100712037D01*
X131969557Y-100705519D01*
X132035740Y-100699000D01*
X132124260Y-100699000D01*
X132190443Y-100705519D01*
X132190443Y-100705519D01*
G37*
G36*
X147430443Y-100705519D02*
G01*
X147496627Y-100712037D01*
X147666466Y-100763557D01*
X147822991Y-100847222D01*
X147858729Y-100876552D01*
X147960186Y-100959814D01*
X148043448Y-101061271D01*
X148072778Y-101097009D01*
X148156443Y-101253534D01*
X148207963Y-101423373D01*
X148225359Y-101600000D01*
X148207963Y-101776627D01*
X148156443Y-101946466D01*
X148072778Y-102102991D01*
X148055700Y-102123800D01*
X147960186Y-102240186D01*
X147858729Y-102323448D01*
X147822991Y-102352778D01*
X147666466Y-102436443D01*
X147496627Y-102487963D01*
X147430442Y-102494482D01*
X147364260Y-102501000D01*
X147275740Y-102501000D01*
X147209558Y-102494482D01*
X147143373Y-102487963D01*
X146973534Y-102436443D01*
X146817009Y-102352778D01*
X146781271Y-102323448D01*
X146679814Y-102240186D01*
X146584300Y-102123800D01*
X146567222Y-102102991D01*
X146483557Y-101946466D01*
X146432037Y-101776627D01*
X146414641Y-101600000D01*
X146432037Y-101423373D01*
X146483557Y-101253534D01*
X146567222Y-101097009D01*
X146596552Y-101061271D01*
X146679814Y-100959814D01*
X146781271Y-100876552D01*
X146817009Y-100847222D01*
X146973534Y-100763557D01*
X147143373Y-100712037D01*
X147209557Y-100705519D01*
X147275740Y-100699000D01*
X147364260Y-100699000D01*
X147430443Y-100705519D01*
X147430443Y-100705519D01*
G37*
G36*
X137855000Y-101275800D02*
G01*
X136953000Y-101275800D01*
X136953000Y-100373800D01*
X137855000Y-100373800D01*
X137855000Y-101275800D01*
X137855000Y-101275800D01*
G37*
G36*
X141055000Y-101275800D02*
G01*
X140153000Y-101275800D01*
X140153000Y-100373800D01*
X141055000Y-100373800D01*
X141055000Y-101275800D01*
X141055000Y-101275800D01*
G37*
G36*
X142655000Y-101275800D02*
G01*
X141753000Y-101275800D01*
X141753000Y-100373800D01*
X142655000Y-100373800D01*
X142655000Y-101275800D01*
X142655000Y-101275800D01*
G37*
G36*
X139455000Y-101275800D02*
G01*
X138553000Y-101275800D01*
X138553000Y-100373800D01*
X139455000Y-100373800D01*
X139455000Y-101275800D01*
X139455000Y-101275800D01*
G37*
G36*
X147430443Y-98165519D02*
G01*
X147496627Y-98172037D01*
X147666466Y-98223557D01*
X147822991Y-98307222D01*
X147858729Y-98336552D01*
X147960186Y-98419814D01*
X148043448Y-98521271D01*
X148072778Y-98557009D01*
X148156443Y-98713534D01*
X148207963Y-98883373D01*
X148225359Y-99060000D01*
X148207963Y-99236627D01*
X148156443Y-99406466D01*
X148072778Y-99562991D01*
X148043448Y-99598729D01*
X147960186Y-99700186D01*
X147858729Y-99783448D01*
X147822991Y-99812778D01*
X147666466Y-99896443D01*
X147496627Y-99947963D01*
X147430443Y-99954481D01*
X147364260Y-99961000D01*
X147275740Y-99961000D01*
X147209557Y-99954481D01*
X147143373Y-99947963D01*
X146973534Y-99896443D01*
X146817009Y-99812778D01*
X146781271Y-99783448D01*
X146679814Y-99700186D01*
X146596552Y-99598729D01*
X146567222Y-99562991D01*
X146483557Y-99406466D01*
X146432037Y-99236627D01*
X146414641Y-99060000D01*
X146432037Y-98883373D01*
X146483557Y-98713534D01*
X146567222Y-98557009D01*
X146596552Y-98521271D01*
X146679814Y-98419814D01*
X146781271Y-98336552D01*
X146817009Y-98307222D01*
X146973534Y-98223557D01*
X147143373Y-98172037D01*
X147209557Y-98165519D01*
X147275740Y-98159000D01*
X147364260Y-98159000D01*
X147430443Y-98165519D01*
X147430443Y-98165519D01*
G37*
G36*
X132190443Y-98165519D02*
G01*
X132256627Y-98172037D01*
X132426466Y-98223557D01*
X132582991Y-98307222D01*
X132618729Y-98336552D01*
X132720186Y-98419814D01*
X132803448Y-98521271D01*
X132832778Y-98557009D01*
X132916443Y-98713534D01*
X132967963Y-98883373D01*
X132985359Y-99060000D01*
X132967963Y-99236627D01*
X132916443Y-99406466D01*
X132832778Y-99562991D01*
X132803448Y-99598729D01*
X132720186Y-99700186D01*
X132618729Y-99783448D01*
X132582991Y-99812778D01*
X132426466Y-99896443D01*
X132256627Y-99947963D01*
X132190443Y-99954481D01*
X132124260Y-99961000D01*
X132035740Y-99961000D01*
X131969557Y-99954481D01*
X131903373Y-99947963D01*
X131733534Y-99896443D01*
X131577009Y-99812778D01*
X131541271Y-99783448D01*
X131439814Y-99700186D01*
X131356552Y-99598729D01*
X131327222Y-99562991D01*
X131243557Y-99406466D01*
X131192037Y-99236627D01*
X131174641Y-99060000D01*
X131192037Y-98883373D01*
X131243557Y-98713534D01*
X131327222Y-98557009D01*
X131356552Y-98521271D01*
X131439814Y-98419814D01*
X131541271Y-98336552D01*
X131577009Y-98307222D01*
X131733534Y-98223557D01*
X131903373Y-98172037D01*
X131969557Y-98165519D01*
X132035740Y-98159000D01*
X132124260Y-98159000D01*
X132190443Y-98165519D01*
X132190443Y-98165519D01*
G37*
G36*
X142655000Y-99675800D02*
G01*
X141753000Y-99675800D01*
X141753000Y-98773800D01*
X142655000Y-98773800D01*
X142655000Y-99675800D01*
X142655000Y-99675800D01*
G37*
G36*
X139455000Y-99675800D02*
G01*
X138553000Y-99675800D01*
X138553000Y-98773800D01*
X139455000Y-98773800D01*
X139455000Y-99675800D01*
X139455000Y-99675800D01*
G37*
G36*
X137855000Y-99675800D02*
G01*
X136953000Y-99675800D01*
X136953000Y-98773800D01*
X137855000Y-98773800D01*
X137855000Y-99675800D01*
X137855000Y-99675800D01*
G37*
G36*
X141055000Y-99675800D02*
G01*
X140153000Y-99675800D01*
X140153000Y-98773800D01*
X141055000Y-98773800D01*
X141055000Y-99675800D01*
X141055000Y-99675800D01*
G37*
G36*
X139455000Y-98075800D02*
G01*
X138553000Y-98075800D01*
X138553000Y-97173800D01*
X139455000Y-97173800D01*
X139455000Y-98075800D01*
X139455000Y-98075800D01*
G37*
G36*
X137855000Y-98075800D02*
G01*
X136953000Y-98075800D01*
X136953000Y-97173800D01*
X137855000Y-97173800D01*
X137855000Y-98075800D01*
X137855000Y-98075800D01*
G37*
G36*
X141055000Y-98075800D02*
G01*
X140153000Y-98075800D01*
X140153000Y-97173800D01*
X141055000Y-97173800D01*
X141055000Y-98075800D01*
X141055000Y-98075800D01*
G37*
G36*
X142655000Y-98075800D02*
G01*
X141753000Y-98075800D01*
X141753000Y-97173800D01*
X142655000Y-97173800D01*
X142655000Y-98075800D01*
X142655000Y-98075800D01*
G37*
G36*
X132190442Y-95625518D02*
G01*
X132256627Y-95632037D01*
X132426466Y-95683557D01*
X132582991Y-95767222D01*
X132618729Y-95796552D01*
X132720186Y-95879814D01*
X132803448Y-95981271D01*
X132832778Y-96017009D01*
X132916443Y-96173534D01*
X132967963Y-96343373D01*
X132985359Y-96520000D01*
X132967963Y-96696627D01*
X132916443Y-96866466D01*
X132832778Y-97022991D01*
X132803448Y-97058729D01*
X132720186Y-97160186D01*
X132618729Y-97243448D01*
X132582991Y-97272778D01*
X132426466Y-97356443D01*
X132256627Y-97407963D01*
X132190442Y-97414482D01*
X132124260Y-97421000D01*
X132035740Y-97421000D01*
X131969558Y-97414482D01*
X131903373Y-97407963D01*
X131733534Y-97356443D01*
X131577009Y-97272778D01*
X131541271Y-97243448D01*
X131439814Y-97160186D01*
X131356552Y-97058729D01*
X131327222Y-97022991D01*
X131243557Y-96866466D01*
X131192037Y-96696627D01*
X131174641Y-96520000D01*
X131192037Y-96343373D01*
X131243557Y-96173534D01*
X131327222Y-96017009D01*
X131356552Y-95981271D01*
X131439814Y-95879814D01*
X131541271Y-95796552D01*
X131577009Y-95767222D01*
X131733534Y-95683557D01*
X131903373Y-95632037D01*
X131969558Y-95625518D01*
X132035740Y-95619000D01*
X132124260Y-95619000D01*
X132190442Y-95625518D01*
X132190442Y-95625518D01*
G37*
G36*
X147430442Y-95625518D02*
G01*
X147496627Y-95632037D01*
X147666466Y-95683557D01*
X147822991Y-95767222D01*
X147858729Y-95796552D01*
X147960186Y-95879814D01*
X148043448Y-95981271D01*
X148072778Y-96017009D01*
X148156443Y-96173534D01*
X148207963Y-96343373D01*
X148225359Y-96520000D01*
X148207963Y-96696627D01*
X148156443Y-96866466D01*
X148072778Y-97022991D01*
X148043448Y-97058729D01*
X147960186Y-97160186D01*
X147858729Y-97243448D01*
X147822991Y-97272778D01*
X147666466Y-97356443D01*
X147496627Y-97407963D01*
X147430442Y-97414482D01*
X147364260Y-97421000D01*
X147275740Y-97421000D01*
X147209558Y-97414482D01*
X147143373Y-97407963D01*
X146973534Y-97356443D01*
X146817009Y-97272778D01*
X146781271Y-97243448D01*
X146679814Y-97160186D01*
X146596552Y-97058729D01*
X146567222Y-97022991D01*
X146483557Y-96866466D01*
X146432037Y-96696627D01*
X146414641Y-96520000D01*
X146432037Y-96343373D01*
X146483557Y-96173534D01*
X146567222Y-96017009D01*
X146596552Y-95981271D01*
X146679814Y-95879814D01*
X146781271Y-95796552D01*
X146817009Y-95767222D01*
X146973534Y-95683557D01*
X147143373Y-95632037D01*
X147209558Y-95625518D01*
X147275740Y-95619000D01*
X147364260Y-95619000D01*
X147430442Y-95625518D01*
X147430442Y-95625518D01*
G37*
G36*
X137855000Y-96475800D02*
G01*
X136953000Y-96475800D01*
X136953000Y-95573800D01*
X137855000Y-95573800D01*
X137855000Y-96475800D01*
X137855000Y-96475800D01*
G37*
G36*
X142655000Y-96475800D02*
G01*
X141753000Y-96475800D01*
X141753000Y-95573800D01*
X142655000Y-95573800D01*
X142655000Y-96475800D01*
X142655000Y-96475800D01*
G37*
G36*
X141055000Y-96475800D02*
G01*
X140153000Y-96475800D01*
X140153000Y-95573800D01*
X141055000Y-95573800D01*
X141055000Y-96475800D01*
X141055000Y-96475800D01*
G37*
G36*
X139455000Y-96475800D02*
G01*
X138553000Y-96475800D01*
X138553000Y-95573800D01*
X139455000Y-95573800D01*
X139455000Y-96475800D01*
X139455000Y-96475800D01*
G37*
G36*
X147430443Y-93085519D02*
G01*
X147496627Y-93092037D01*
X147666466Y-93143557D01*
X147822991Y-93227222D01*
X147858729Y-93256552D01*
X147960186Y-93339814D01*
X148043448Y-93441271D01*
X148072778Y-93477009D01*
X148156443Y-93633534D01*
X148207963Y-93803373D01*
X148225359Y-93980000D01*
X148207963Y-94156627D01*
X148156443Y-94326466D01*
X148072778Y-94482991D01*
X148043448Y-94518729D01*
X147960186Y-94620186D01*
X147858729Y-94703448D01*
X147822991Y-94732778D01*
X147666466Y-94816443D01*
X147496627Y-94867963D01*
X147430443Y-94874481D01*
X147364260Y-94881000D01*
X147275740Y-94881000D01*
X147209557Y-94874481D01*
X147143373Y-94867963D01*
X146973534Y-94816443D01*
X146817009Y-94732778D01*
X146781271Y-94703448D01*
X146679814Y-94620186D01*
X146596552Y-94518729D01*
X146567222Y-94482991D01*
X146483557Y-94326466D01*
X146432037Y-94156627D01*
X146414641Y-93980000D01*
X146432037Y-93803373D01*
X146483557Y-93633534D01*
X146567222Y-93477009D01*
X146596552Y-93441271D01*
X146679814Y-93339814D01*
X146781271Y-93256552D01*
X146817009Y-93227222D01*
X146973534Y-93143557D01*
X147143373Y-93092037D01*
X147209557Y-93085519D01*
X147275740Y-93079000D01*
X147364260Y-93079000D01*
X147430443Y-93085519D01*
X147430443Y-93085519D01*
G37*
G36*
X132190443Y-93085519D02*
G01*
X132256627Y-93092037D01*
X132426466Y-93143557D01*
X132582991Y-93227222D01*
X132618729Y-93256552D01*
X132720186Y-93339814D01*
X132803448Y-93441271D01*
X132832778Y-93477009D01*
X132916443Y-93633534D01*
X132967963Y-93803373D01*
X132985359Y-93980000D01*
X132967963Y-94156627D01*
X132916443Y-94326466D01*
X132832778Y-94482991D01*
X132803448Y-94518729D01*
X132720186Y-94620186D01*
X132618729Y-94703448D01*
X132582991Y-94732778D01*
X132426466Y-94816443D01*
X132256627Y-94867963D01*
X132190443Y-94874481D01*
X132124260Y-94881000D01*
X132035740Y-94881000D01*
X131969557Y-94874481D01*
X131903373Y-94867963D01*
X131733534Y-94816443D01*
X131577009Y-94732778D01*
X131541271Y-94703448D01*
X131439814Y-94620186D01*
X131356552Y-94518729D01*
X131327222Y-94482991D01*
X131243557Y-94326466D01*
X131192037Y-94156627D01*
X131174641Y-93980000D01*
X131192037Y-93803373D01*
X131243557Y-93633534D01*
X131327222Y-93477009D01*
X131356552Y-93441271D01*
X131439814Y-93339814D01*
X131541271Y-93256552D01*
X131577009Y-93227222D01*
X131733534Y-93143557D01*
X131903373Y-93092037D01*
X131969557Y-93085519D01*
X132035740Y-93079000D01*
X132124260Y-93079000D01*
X132190443Y-93085519D01*
X132190443Y-93085519D01*
G37*
G36*
X137855000Y-94875800D02*
G01*
X136953000Y-94875800D01*
X136953000Y-93973800D01*
X137855000Y-93973800D01*
X137855000Y-94875800D01*
X137855000Y-94875800D01*
G37*
G36*
X139455000Y-94875800D02*
G01*
X138553000Y-94875800D01*
X138553000Y-93973800D01*
X139455000Y-93973800D01*
X139455000Y-94875800D01*
X139455000Y-94875800D01*
G37*
G36*
X141055000Y-94875800D02*
G01*
X140153000Y-94875800D01*
X140153000Y-93973800D01*
X141055000Y-93973800D01*
X141055000Y-94875800D01*
X141055000Y-94875800D01*
G37*
G36*
X142655000Y-94875800D02*
G01*
X141753000Y-94875800D01*
X141753000Y-93973800D01*
X142655000Y-93973800D01*
X142655000Y-94875800D01*
X142655000Y-94875800D01*
G37*
G36*
X137855000Y-93275800D02*
G01*
X136953000Y-93275800D01*
X136953000Y-92373800D01*
X137855000Y-92373800D01*
X137855000Y-93275800D01*
X137855000Y-93275800D01*
G37*
G36*
X139455000Y-93275800D02*
G01*
X138553000Y-93275800D01*
X138553000Y-92373800D01*
X139455000Y-92373800D01*
X139455000Y-93275800D01*
X139455000Y-93275800D01*
G37*
G36*
X141055000Y-93275800D02*
G01*
X140153000Y-93275800D01*
X140153000Y-92373800D01*
X141055000Y-92373800D01*
X141055000Y-93275800D01*
X141055000Y-93275800D01*
G37*
G36*
X142655000Y-93275800D02*
G01*
X141753000Y-93275800D01*
X141753000Y-92373800D01*
X142655000Y-92373800D01*
X142655000Y-93275800D01*
X142655000Y-93275800D01*
G37*
G36*
X132190443Y-90545519D02*
G01*
X132256627Y-90552037D01*
X132426466Y-90603557D01*
X132582991Y-90687222D01*
X132618729Y-90716552D01*
X132720186Y-90799814D01*
X132803448Y-90901271D01*
X132832778Y-90937009D01*
X132916443Y-91093534D01*
X132967963Y-91263373D01*
X132985359Y-91440000D01*
X132967963Y-91616627D01*
X132916443Y-91786466D01*
X132832778Y-91942991D01*
X132803448Y-91978729D01*
X132720186Y-92080186D01*
X132618729Y-92163448D01*
X132582991Y-92192778D01*
X132426466Y-92276443D01*
X132256627Y-92327963D01*
X132190443Y-92334481D01*
X132124260Y-92341000D01*
X132035740Y-92341000D01*
X131969557Y-92334481D01*
X131903373Y-92327963D01*
X131733534Y-92276443D01*
X131577009Y-92192778D01*
X131541271Y-92163448D01*
X131439814Y-92080186D01*
X131356552Y-91978729D01*
X131327222Y-91942991D01*
X131243557Y-91786466D01*
X131192037Y-91616627D01*
X131174641Y-91440000D01*
X131192037Y-91263373D01*
X131243557Y-91093534D01*
X131327222Y-90937009D01*
X131356552Y-90901271D01*
X131439814Y-90799814D01*
X131541271Y-90716552D01*
X131577009Y-90687222D01*
X131733534Y-90603557D01*
X131903373Y-90552037D01*
X131969557Y-90545519D01*
X132035740Y-90539000D01*
X132124260Y-90539000D01*
X132190443Y-90545519D01*
X132190443Y-90545519D01*
G37*
G36*
X147430443Y-90545519D02*
G01*
X147496627Y-90552037D01*
X147666466Y-90603557D01*
X147822991Y-90687222D01*
X147858729Y-90716552D01*
X147960186Y-90799814D01*
X148043448Y-90901271D01*
X148072778Y-90937009D01*
X148156443Y-91093534D01*
X148207963Y-91263373D01*
X148225359Y-91440000D01*
X148207963Y-91616627D01*
X148156443Y-91786466D01*
X148072778Y-91942991D01*
X148043448Y-91978729D01*
X147960186Y-92080186D01*
X147858729Y-92163448D01*
X147822991Y-92192778D01*
X147666466Y-92276443D01*
X147496627Y-92327963D01*
X147430443Y-92334481D01*
X147364260Y-92341000D01*
X147275740Y-92341000D01*
X147209557Y-92334481D01*
X147143373Y-92327963D01*
X146973534Y-92276443D01*
X146817009Y-92192778D01*
X146781271Y-92163448D01*
X146679814Y-92080186D01*
X146596552Y-91978729D01*
X146567222Y-91942991D01*
X146483557Y-91786466D01*
X146432037Y-91616627D01*
X146414641Y-91440000D01*
X146432037Y-91263373D01*
X146483557Y-91093534D01*
X146567222Y-90937009D01*
X146596552Y-90901271D01*
X146679814Y-90799814D01*
X146781271Y-90716552D01*
X146817009Y-90687222D01*
X146973534Y-90603557D01*
X147143373Y-90552037D01*
X147209557Y-90545519D01*
X147275740Y-90539000D01*
X147364260Y-90539000D01*
X147430443Y-90545519D01*
X147430443Y-90545519D01*
G37*
G36*
X137855000Y-91675800D02*
G01*
X136953000Y-91675800D01*
X136953000Y-90773800D01*
X137855000Y-90773800D01*
X137855000Y-91675800D01*
X137855000Y-91675800D01*
G37*
G36*
X141055000Y-91675800D02*
G01*
X140153000Y-91675800D01*
X140153000Y-90773800D01*
X141055000Y-90773800D01*
X141055000Y-91675800D01*
X141055000Y-91675800D01*
G37*
G36*
X139455000Y-91675800D02*
G01*
X138553000Y-91675800D01*
X138553000Y-90773800D01*
X139455000Y-90773800D01*
X139455000Y-91675800D01*
X139455000Y-91675800D01*
G37*
G36*
X142655000Y-91675800D02*
G01*
X141753000Y-91675800D01*
X141753000Y-90773800D01*
X142655000Y-90773800D01*
X142655000Y-91675800D01*
X142655000Y-91675800D01*
G37*
G36*
X144505000Y-90275800D02*
G01*
X135103000Y-90275800D01*
X135103000Y-89573800D01*
X144505000Y-89573800D01*
X144505000Y-90275800D01*
X144505000Y-90275800D01*
G37*
G36*
X132190443Y-88005519D02*
G01*
X132256627Y-88012037D01*
X132426466Y-88063557D01*
X132582991Y-88147222D01*
X132618729Y-88176552D01*
X132720186Y-88259814D01*
X132803448Y-88361271D01*
X132832778Y-88397009D01*
X132916443Y-88553534D01*
X132967963Y-88723373D01*
X132985359Y-88900000D01*
X132967963Y-89076627D01*
X132916443Y-89246466D01*
X132832778Y-89402991D01*
X132803448Y-89438729D01*
X132720186Y-89540186D01*
X132618729Y-89623448D01*
X132582991Y-89652778D01*
X132426466Y-89736443D01*
X132256627Y-89787963D01*
X132190443Y-89794481D01*
X132124260Y-89801000D01*
X132035740Y-89801000D01*
X131969557Y-89794481D01*
X131903373Y-89787963D01*
X131733534Y-89736443D01*
X131577009Y-89652778D01*
X131541271Y-89623448D01*
X131439814Y-89540186D01*
X131356552Y-89438729D01*
X131327222Y-89402991D01*
X131243557Y-89246466D01*
X131192037Y-89076627D01*
X131174641Y-88900000D01*
X131192037Y-88723373D01*
X131243557Y-88553534D01*
X131327222Y-88397009D01*
X131356552Y-88361271D01*
X131439814Y-88259814D01*
X131541271Y-88176552D01*
X131577009Y-88147222D01*
X131733534Y-88063557D01*
X131903373Y-88012037D01*
X131969557Y-88005519D01*
X132035740Y-87999000D01*
X132124260Y-87999000D01*
X132190443Y-88005519D01*
X132190443Y-88005519D01*
G37*
G36*
X147430443Y-88005519D02*
G01*
X147496627Y-88012037D01*
X147666466Y-88063557D01*
X147822991Y-88147222D01*
X147858729Y-88176552D01*
X147960186Y-88259814D01*
X148043448Y-88361271D01*
X148072778Y-88397009D01*
X148156443Y-88553534D01*
X148207963Y-88723373D01*
X148225359Y-88900000D01*
X148207963Y-89076627D01*
X148156443Y-89246466D01*
X148072778Y-89402991D01*
X148043448Y-89438729D01*
X147960186Y-89540186D01*
X147858729Y-89623448D01*
X147822991Y-89652778D01*
X147666466Y-89736443D01*
X147496627Y-89787963D01*
X147430443Y-89794481D01*
X147364260Y-89801000D01*
X147275740Y-89801000D01*
X147209557Y-89794481D01*
X147143373Y-89787963D01*
X146973534Y-89736443D01*
X146817009Y-89652778D01*
X146781271Y-89623448D01*
X146679814Y-89540186D01*
X146596552Y-89438729D01*
X146567222Y-89402991D01*
X146483557Y-89246466D01*
X146432037Y-89076627D01*
X146414641Y-88900000D01*
X146432037Y-88723373D01*
X146483557Y-88553534D01*
X146567222Y-88397009D01*
X146596552Y-88361271D01*
X146679814Y-88259814D01*
X146781271Y-88176552D01*
X146817009Y-88147222D01*
X146973534Y-88063557D01*
X147143373Y-88012037D01*
X147209557Y-88005519D01*
X147275740Y-87999000D01*
X147364260Y-87999000D01*
X147430443Y-88005519D01*
X147430443Y-88005519D01*
G37*
G36*
X132981000Y-87261000D02*
G01*
X131179000Y-87261000D01*
X131179000Y-85459000D01*
X132981000Y-85459000D01*
X132981000Y-87261000D01*
X132981000Y-87261000D01*
G37*
G36*
X148221000Y-87261000D02*
G01*
X146419000Y-87261000D01*
X146419000Y-85459000D01*
X148221000Y-85459000D01*
X148221000Y-87261000D01*
X148221000Y-87261000D01*
G37*
G36*
X139578800Y-87243200D02*
G01*
X138676800Y-87243200D01*
X138676800Y-86391200D01*
X139578800Y-86391200D01*
X139578800Y-87243200D01*
X139578800Y-87243200D01*
G37*
G36*
X141078800Y-87243200D02*
G01*
X140176800Y-87243200D01*
X140176800Y-86391200D01*
X141078800Y-86391200D01*
X141078800Y-87243200D01*
X141078800Y-87243200D01*
G37*
M02*
