G04 #@! TF.GenerationSoftware,KiCad,Pcbnew,(5.1.4-0)*
G04 #@! TF.CreationDate,2021-01-28T22:10:56-05:00*
G04 #@! TF.ProjectId,coral_breakout,636f7261-6c5f-4627-9265-616b6f75742e,rev?*
G04 #@! TF.SameCoordinates,Original*
G04 #@! TF.FileFunction,Paste,Top*
G04 #@! TF.FilePolarity,Positive*
%FSLAX46Y46*%
G04 Gerber Fmt 4.6, Leading zero omitted, Abs format (unit mm)*
G04 Created by KiCad (PCBNEW (5.1.4-0)) date 2021-01-28 22:10:56*
%MOMM*%
%LPD*%
G04 APERTURE LIST*
%ADD10R,0.800000X0.800000*%
%ADD11R,0.600000X0.300000*%
%ADD12R,0.300000X0.600000*%
%ADD13R,0.800000X0.750000*%
G04 APERTURE END LIST*
D10*
X137404000Y-91224800D03*
X139004000Y-91224800D03*
X140604000Y-91224800D03*
X142204000Y-91224800D03*
X142204000Y-92824800D03*
X140604000Y-92824800D03*
X139004000Y-92824800D03*
X137404000Y-92824800D03*
X137404000Y-94424800D03*
X139004000Y-94424800D03*
X140604000Y-94424800D03*
X142204000Y-94424800D03*
X142204000Y-96024800D03*
X140604000Y-96024800D03*
X139004000Y-96024800D03*
X137404000Y-96024800D03*
X137404000Y-97624800D03*
X139004000Y-97624800D03*
X140604000Y-97624800D03*
X142204000Y-97624800D03*
X142204000Y-99224800D03*
X140604000Y-99224800D03*
X139004000Y-99224800D03*
X137404000Y-99224800D03*
X137404000Y-100824800D03*
X139004000Y-100824800D03*
X140604000Y-100824800D03*
X142204000Y-100824800D03*
X142204000Y-102424800D03*
X140604000Y-102424800D03*
X139004000Y-102424800D03*
X137404000Y-102424800D03*
D11*
X135454000Y-102824800D03*
X135454000Y-102324800D03*
X135454000Y-101824800D03*
X135454000Y-101324800D03*
X135454000Y-100824800D03*
X135454000Y-100324800D03*
X135454000Y-99824800D03*
X135454000Y-99324800D03*
X135454000Y-98824800D03*
X135454000Y-98324800D03*
X135454000Y-97824800D03*
X135454000Y-97324800D03*
X135454000Y-96824800D03*
X135454000Y-96324800D03*
X135454000Y-95824800D03*
X135454000Y-95324800D03*
X135454000Y-94824800D03*
X135454000Y-94324800D03*
X135454000Y-93824800D03*
X135454000Y-93324800D03*
X135454000Y-92824800D03*
X135454000Y-92324800D03*
X135454000Y-91824800D03*
X135454000Y-91324800D03*
X135454000Y-90824800D03*
D12*
X135304000Y-89924800D03*
X135804000Y-89924800D03*
X136304000Y-89924800D03*
X136804000Y-89924800D03*
X137304000Y-89924800D03*
X137804000Y-89924800D03*
X138304000Y-89924800D03*
X138804000Y-89924800D03*
X139304000Y-89924800D03*
X139804000Y-89924800D03*
X140304000Y-89924800D03*
X140804000Y-89924800D03*
X141304000Y-89924800D03*
X141804000Y-89924800D03*
X142304000Y-89924800D03*
X142804000Y-89924800D03*
X143304000Y-89924800D03*
X143804000Y-89924800D03*
X144304000Y-89924800D03*
D11*
X144154000Y-90824800D03*
X144154000Y-91324800D03*
X144154000Y-91824800D03*
X144154000Y-92324800D03*
X144154000Y-92824800D03*
X144154000Y-93324800D03*
X144154000Y-93824800D03*
X144154000Y-94324800D03*
X144154000Y-94824800D03*
X144154000Y-95324800D03*
X144154000Y-95824800D03*
X144154000Y-96324800D03*
X144154000Y-96824800D03*
X144154000Y-97324800D03*
X144154000Y-97824800D03*
X144154000Y-98324800D03*
X144154000Y-98824800D03*
X144154000Y-99324800D03*
X144154000Y-99824800D03*
X144154000Y-100324800D03*
X144154000Y-100824800D03*
X144154000Y-101324800D03*
X144154000Y-101824800D03*
X144154000Y-102324800D03*
X144154000Y-102824800D03*
D12*
X144304000Y-103724800D03*
X143804000Y-103724800D03*
X143304000Y-103724800D03*
X142804000Y-103724800D03*
X142304000Y-103724800D03*
X141804000Y-103724800D03*
X141304000Y-103724800D03*
X140804000Y-103724800D03*
X140304000Y-103724800D03*
X139804000Y-103724800D03*
X139304000Y-103724800D03*
X138804000Y-103724800D03*
X138304000Y-103724800D03*
X137804000Y-103724800D03*
X137304000Y-103724800D03*
X136804000Y-103724800D03*
X136304000Y-103724800D03*
X135804000Y-103724800D03*
X135304000Y-103724800D03*
D13*
X140627800Y-86817200D03*
X139127800Y-86817200D03*
M02*
