G04 #@! TF.GenerationSoftware,KiCad,Pcbnew,(5.1.4-0)*
G04 #@! TF.CreationDate,2021-01-28T22:10:56-05:00*
G04 #@! TF.ProjectId,coral_breakout,636f7261-6c5f-4627-9265-616b6f75742e,rev?*
G04 #@! TF.SameCoordinates,Original*
G04 #@! TF.FileFunction,Copper,L2,Bot*
G04 #@! TF.FilePolarity,Positive*
%FSLAX46Y46*%
G04 Gerber Fmt 4.6, Leading zero omitted, Abs format (unit mm)*
G04 Created by KiCad (PCBNEW (5.1.4-0)) date 2021-01-28 22:10:56*
%MOMM*%
%LPD*%
G04 APERTURE LIST*
%ADD10R,1.700000X1.700000*%
%ADD11O,1.700000X1.700000*%
%ADD12C,0.254000*%
G04 APERTURE END LIST*
D10*
X147320000Y-86360000D03*
D11*
X147320000Y-88900000D03*
X147320000Y-91440000D03*
X147320000Y-93980000D03*
X147320000Y-96520000D03*
X147320000Y-99060000D03*
X147320000Y-101600000D03*
X147320000Y-104140000D03*
X147320000Y-106680000D03*
D10*
X132080000Y-86360000D03*
D11*
X132080000Y-88900000D03*
X132080000Y-91440000D03*
X132080000Y-93980000D03*
X132080000Y-96520000D03*
X132080000Y-99060000D03*
X132080000Y-101600000D03*
X132080000Y-104140000D03*
X132080000Y-106680000D03*
D12*
G36*
X145880498Y-85265820D02*
G01*
X145844188Y-85385518D01*
X145831928Y-85510000D01*
X145831928Y-87210000D01*
X145844188Y-87334482D01*
X145880498Y-87454180D01*
X145939463Y-87564494D01*
X146018815Y-87661185D01*
X146115506Y-87740537D01*
X146225820Y-87799502D01*
X146294687Y-87820393D01*
X146264866Y-87844866D01*
X146079294Y-88070986D01*
X145941401Y-88328966D01*
X145856487Y-88608889D01*
X145827815Y-88900000D01*
X145856487Y-89191111D01*
X145941401Y-89471034D01*
X146079294Y-89729014D01*
X146264866Y-89955134D01*
X146490986Y-90140706D01*
X146545791Y-90170000D01*
X146490986Y-90199294D01*
X146264866Y-90384866D01*
X146079294Y-90610986D01*
X145941401Y-90868966D01*
X145856487Y-91148889D01*
X145827815Y-91440000D01*
X145856487Y-91731111D01*
X145941401Y-92011034D01*
X146079294Y-92269014D01*
X146264866Y-92495134D01*
X146490986Y-92680706D01*
X146545791Y-92710000D01*
X146490986Y-92739294D01*
X146264866Y-92924866D01*
X146079294Y-93150986D01*
X145941401Y-93408966D01*
X145856487Y-93688889D01*
X145827815Y-93980000D01*
X145856487Y-94271111D01*
X145941401Y-94551034D01*
X146079294Y-94809014D01*
X146264866Y-95035134D01*
X146490986Y-95220706D01*
X146545791Y-95250000D01*
X146490986Y-95279294D01*
X146264866Y-95464866D01*
X146079294Y-95690986D01*
X145941401Y-95948966D01*
X145856487Y-96228889D01*
X145827815Y-96520000D01*
X145856487Y-96811111D01*
X145941401Y-97091034D01*
X146079294Y-97349014D01*
X146264866Y-97575134D01*
X146490986Y-97760706D01*
X146545791Y-97790000D01*
X146490986Y-97819294D01*
X146264866Y-98004866D01*
X146079294Y-98230986D01*
X145941401Y-98488966D01*
X145856487Y-98768889D01*
X145827815Y-99060000D01*
X145856487Y-99351111D01*
X145941401Y-99631034D01*
X146079294Y-99889014D01*
X146264866Y-100115134D01*
X146490986Y-100300706D01*
X146545791Y-100330000D01*
X146490986Y-100359294D01*
X146264866Y-100544866D01*
X146079294Y-100770986D01*
X145941401Y-101028966D01*
X145856487Y-101308889D01*
X145827815Y-101600000D01*
X145856487Y-101891111D01*
X145941401Y-102171034D01*
X146079294Y-102429014D01*
X146264866Y-102655134D01*
X146490986Y-102840706D01*
X146545791Y-102870000D01*
X146490986Y-102899294D01*
X146264866Y-103084866D01*
X146079294Y-103310986D01*
X145941401Y-103568966D01*
X145856487Y-103848889D01*
X145827815Y-104140000D01*
X145856487Y-104431111D01*
X145941401Y-104711034D01*
X146079294Y-104969014D01*
X146264866Y-105195134D01*
X146490986Y-105380706D01*
X146545791Y-105410000D01*
X146490986Y-105439294D01*
X146264866Y-105624866D01*
X146079294Y-105850986D01*
X145941401Y-106108966D01*
X145856487Y-106388889D01*
X145827815Y-106680000D01*
X145856487Y-106971111D01*
X145941401Y-107251034D01*
X146079294Y-107509014D01*
X146264866Y-107735134D01*
X146341468Y-107798000D01*
X133058532Y-107798000D01*
X133135134Y-107735134D01*
X133320706Y-107509014D01*
X133458599Y-107251034D01*
X133543513Y-106971111D01*
X133572185Y-106680000D01*
X133543513Y-106388889D01*
X133458599Y-106108966D01*
X133320706Y-105850986D01*
X133135134Y-105624866D01*
X132909014Y-105439294D01*
X132854209Y-105410000D01*
X132909014Y-105380706D01*
X133135134Y-105195134D01*
X133320706Y-104969014D01*
X133458599Y-104711034D01*
X133543513Y-104431111D01*
X133572185Y-104140000D01*
X133543513Y-103848889D01*
X133458599Y-103568966D01*
X133320706Y-103310986D01*
X133135134Y-103084866D01*
X132909014Y-102899294D01*
X132854209Y-102870000D01*
X132909014Y-102840706D01*
X133135134Y-102655134D01*
X133320706Y-102429014D01*
X133458599Y-102171034D01*
X133543513Y-101891111D01*
X133572185Y-101600000D01*
X133543513Y-101308889D01*
X133458599Y-101028966D01*
X133320706Y-100770986D01*
X133135134Y-100544866D01*
X132909014Y-100359294D01*
X132854209Y-100330000D01*
X132909014Y-100300706D01*
X133135134Y-100115134D01*
X133320706Y-99889014D01*
X133458599Y-99631034D01*
X133543513Y-99351111D01*
X133572185Y-99060000D01*
X133543513Y-98768889D01*
X133458599Y-98488966D01*
X133320706Y-98230986D01*
X133135134Y-98004866D01*
X132909014Y-97819294D01*
X132854209Y-97790000D01*
X132909014Y-97760706D01*
X133135134Y-97575134D01*
X133320706Y-97349014D01*
X133458599Y-97091034D01*
X133543513Y-96811111D01*
X133572185Y-96520000D01*
X133543513Y-96228889D01*
X133458599Y-95948966D01*
X133320706Y-95690986D01*
X133135134Y-95464866D01*
X132909014Y-95279294D01*
X132854209Y-95250000D01*
X132909014Y-95220706D01*
X133135134Y-95035134D01*
X133320706Y-94809014D01*
X133458599Y-94551034D01*
X133543513Y-94271111D01*
X133572185Y-93980000D01*
X133543513Y-93688889D01*
X133458599Y-93408966D01*
X133320706Y-93150986D01*
X133135134Y-92924866D01*
X132909014Y-92739294D01*
X132854209Y-92710000D01*
X132909014Y-92680706D01*
X133135134Y-92495134D01*
X133320706Y-92269014D01*
X133458599Y-92011034D01*
X133543513Y-91731111D01*
X133572185Y-91440000D01*
X133543513Y-91148889D01*
X133458599Y-90868966D01*
X133320706Y-90610986D01*
X133135134Y-90384866D01*
X132909014Y-90199294D01*
X132844477Y-90164799D01*
X132961355Y-90095178D01*
X133177588Y-89900269D01*
X133351641Y-89666920D01*
X133476825Y-89404099D01*
X133521476Y-89256890D01*
X133400155Y-89027000D01*
X132207000Y-89027000D01*
X132207000Y-89047000D01*
X131953000Y-89047000D01*
X131953000Y-89027000D01*
X131933000Y-89027000D01*
X131933000Y-88773000D01*
X131953000Y-88773000D01*
X131953000Y-88753000D01*
X132207000Y-88753000D01*
X132207000Y-88773000D01*
X133400155Y-88773000D01*
X133521476Y-88543110D01*
X133476825Y-88395901D01*
X133351641Y-88133080D01*
X133177588Y-87899731D01*
X133093534Y-87823966D01*
X133174180Y-87799502D01*
X133284494Y-87740537D01*
X133381185Y-87661185D01*
X133460537Y-87564494D01*
X133519502Y-87454180D01*
X133555812Y-87334482D01*
X133568072Y-87210000D01*
X133568072Y-85510000D01*
X133555812Y-85385518D01*
X133519502Y-85265820D01*
X133506770Y-85242000D01*
X145893230Y-85242000D01*
X145880498Y-85265820D01*
X145880498Y-85265820D01*
G37*
X145880498Y-85265820D02*
X145844188Y-85385518D01*
X145831928Y-85510000D01*
X145831928Y-87210000D01*
X145844188Y-87334482D01*
X145880498Y-87454180D01*
X145939463Y-87564494D01*
X146018815Y-87661185D01*
X146115506Y-87740537D01*
X146225820Y-87799502D01*
X146294687Y-87820393D01*
X146264866Y-87844866D01*
X146079294Y-88070986D01*
X145941401Y-88328966D01*
X145856487Y-88608889D01*
X145827815Y-88900000D01*
X145856487Y-89191111D01*
X145941401Y-89471034D01*
X146079294Y-89729014D01*
X146264866Y-89955134D01*
X146490986Y-90140706D01*
X146545791Y-90170000D01*
X146490986Y-90199294D01*
X146264866Y-90384866D01*
X146079294Y-90610986D01*
X145941401Y-90868966D01*
X145856487Y-91148889D01*
X145827815Y-91440000D01*
X145856487Y-91731111D01*
X145941401Y-92011034D01*
X146079294Y-92269014D01*
X146264866Y-92495134D01*
X146490986Y-92680706D01*
X146545791Y-92710000D01*
X146490986Y-92739294D01*
X146264866Y-92924866D01*
X146079294Y-93150986D01*
X145941401Y-93408966D01*
X145856487Y-93688889D01*
X145827815Y-93980000D01*
X145856487Y-94271111D01*
X145941401Y-94551034D01*
X146079294Y-94809014D01*
X146264866Y-95035134D01*
X146490986Y-95220706D01*
X146545791Y-95250000D01*
X146490986Y-95279294D01*
X146264866Y-95464866D01*
X146079294Y-95690986D01*
X145941401Y-95948966D01*
X145856487Y-96228889D01*
X145827815Y-96520000D01*
X145856487Y-96811111D01*
X145941401Y-97091034D01*
X146079294Y-97349014D01*
X146264866Y-97575134D01*
X146490986Y-97760706D01*
X146545791Y-97790000D01*
X146490986Y-97819294D01*
X146264866Y-98004866D01*
X146079294Y-98230986D01*
X145941401Y-98488966D01*
X145856487Y-98768889D01*
X145827815Y-99060000D01*
X145856487Y-99351111D01*
X145941401Y-99631034D01*
X146079294Y-99889014D01*
X146264866Y-100115134D01*
X146490986Y-100300706D01*
X146545791Y-100330000D01*
X146490986Y-100359294D01*
X146264866Y-100544866D01*
X146079294Y-100770986D01*
X145941401Y-101028966D01*
X145856487Y-101308889D01*
X145827815Y-101600000D01*
X145856487Y-101891111D01*
X145941401Y-102171034D01*
X146079294Y-102429014D01*
X146264866Y-102655134D01*
X146490986Y-102840706D01*
X146545791Y-102870000D01*
X146490986Y-102899294D01*
X146264866Y-103084866D01*
X146079294Y-103310986D01*
X145941401Y-103568966D01*
X145856487Y-103848889D01*
X145827815Y-104140000D01*
X145856487Y-104431111D01*
X145941401Y-104711034D01*
X146079294Y-104969014D01*
X146264866Y-105195134D01*
X146490986Y-105380706D01*
X146545791Y-105410000D01*
X146490986Y-105439294D01*
X146264866Y-105624866D01*
X146079294Y-105850986D01*
X145941401Y-106108966D01*
X145856487Y-106388889D01*
X145827815Y-106680000D01*
X145856487Y-106971111D01*
X145941401Y-107251034D01*
X146079294Y-107509014D01*
X146264866Y-107735134D01*
X146341468Y-107798000D01*
X133058532Y-107798000D01*
X133135134Y-107735134D01*
X133320706Y-107509014D01*
X133458599Y-107251034D01*
X133543513Y-106971111D01*
X133572185Y-106680000D01*
X133543513Y-106388889D01*
X133458599Y-106108966D01*
X133320706Y-105850986D01*
X133135134Y-105624866D01*
X132909014Y-105439294D01*
X132854209Y-105410000D01*
X132909014Y-105380706D01*
X133135134Y-105195134D01*
X133320706Y-104969014D01*
X133458599Y-104711034D01*
X133543513Y-104431111D01*
X133572185Y-104140000D01*
X133543513Y-103848889D01*
X133458599Y-103568966D01*
X133320706Y-103310986D01*
X133135134Y-103084866D01*
X132909014Y-102899294D01*
X132854209Y-102870000D01*
X132909014Y-102840706D01*
X133135134Y-102655134D01*
X133320706Y-102429014D01*
X133458599Y-102171034D01*
X133543513Y-101891111D01*
X133572185Y-101600000D01*
X133543513Y-101308889D01*
X133458599Y-101028966D01*
X133320706Y-100770986D01*
X133135134Y-100544866D01*
X132909014Y-100359294D01*
X132854209Y-100330000D01*
X132909014Y-100300706D01*
X133135134Y-100115134D01*
X133320706Y-99889014D01*
X133458599Y-99631034D01*
X133543513Y-99351111D01*
X133572185Y-99060000D01*
X133543513Y-98768889D01*
X133458599Y-98488966D01*
X133320706Y-98230986D01*
X133135134Y-98004866D01*
X132909014Y-97819294D01*
X132854209Y-97790000D01*
X132909014Y-97760706D01*
X133135134Y-97575134D01*
X133320706Y-97349014D01*
X133458599Y-97091034D01*
X133543513Y-96811111D01*
X133572185Y-96520000D01*
X133543513Y-96228889D01*
X133458599Y-95948966D01*
X133320706Y-95690986D01*
X133135134Y-95464866D01*
X132909014Y-95279294D01*
X132854209Y-95250000D01*
X132909014Y-95220706D01*
X133135134Y-95035134D01*
X133320706Y-94809014D01*
X133458599Y-94551034D01*
X133543513Y-94271111D01*
X133572185Y-93980000D01*
X133543513Y-93688889D01*
X133458599Y-93408966D01*
X133320706Y-93150986D01*
X133135134Y-92924866D01*
X132909014Y-92739294D01*
X132854209Y-92710000D01*
X132909014Y-92680706D01*
X133135134Y-92495134D01*
X133320706Y-92269014D01*
X133458599Y-92011034D01*
X133543513Y-91731111D01*
X133572185Y-91440000D01*
X133543513Y-91148889D01*
X133458599Y-90868966D01*
X133320706Y-90610986D01*
X133135134Y-90384866D01*
X132909014Y-90199294D01*
X132844477Y-90164799D01*
X132961355Y-90095178D01*
X133177588Y-89900269D01*
X133351641Y-89666920D01*
X133476825Y-89404099D01*
X133521476Y-89256890D01*
X133400155Y-89027000D01*
X132207000Y-89027000D01*
X132207000Y-89047000D01*
X131953000Y-89047000D01*
X131953000Y-89027000D01*
X131933000Y-89027000D01*
X131933000Y-88773000D01*
X131953000Y-88773000D01*
X131953000Y-88753000D01*
X132207000Y-88753000D01*
X132207000Y-88773000D01*
X133400155Y-88773000D01*
X133521476Y-88543110D01*
X133476825Y-88395901D01*
X133351641Y-88133080D01*
X133177588Y-87899731D01*
X133093534Y-87823966D01*
X133174180Y-87799502D01*
X133284494Y-87740537D01*
X133381185Y-87661185D01*
X133460537Y-87564494D01*
X133519502Y-87454180D01*
X133555812Y-87334482D01*
X133568072Y-87210000D01*
X133568072Y-85510000D01*
X133555812Y-85385518D01*
X133519502Y-85265820D01*
X133506770Y-85242000D01*
X145893230Y-85242000D01*
X145880498Y-85265820D01*
M02*
